<svg class="diagram-root" style="background: #f5f6f6" xmlns="http://www.w3.org/2000/svg" xmlns:xlink="http://www.w3.org/1999/xlink"><style>.diagram-root { font-family: "Helvetica Neue", sans-serif; font-size: 12px; } .t { overflow: visible; } .t-bg { y: 40; fill: #fff;   } .th { fill: #005aa0;   } .tht { fill: #fff; font-size: 14px;  } .tf { fill: #323c46; overflow: visible; } .tf.pk { fill: #005aa0; font-weight: bold; } .tf.fk { font-weight: bold; } .ty { fill: #adb1b5; font-weight: normal; text-anchor: end; } .r { fill: transparent; stroke: #c3c3c3; stroke-width: 1; } .l { stroke: 1; } .i { fill: #c2c7ce; stroke: #c2c7ce; } .i.ix { fill: #afb3b6; stroke: #000; } .fa { fill: transparent; overflow: visible; } .fa .bg.hover { fill: #f7f7f7; } .c { cy: 12; r: 4; stroke: #d2d2dc; fill: #d2d2dc; } .hr { fill: transparent; stroke: #323c46; stroke-opacity: 0.035; stroke-width: 13; } .dc { stroke: #fa5a3c; fill: #fa5a3c; } .x { stroke: white; stroke-width: 1; } .hl .th { fill: #1b9bff; } .hl .tht {  } .fhl .bg { fill: #e7f4ff; } .fhls .bg {  } .r.hl { stroke: #1b9bff; } .dim { opacity: 0.25; }</style><g class="drawing-wrapper" transform="translate(-76, -39) scale(1,1)"><g class="rs"><path d="M 272.06 187 m -1, 0 a 1,1 0 1,0 2,0 a 1,1 0 1,0 -2,0 M 272.06 187 m -0.5, 0 a 0.5,0.5 0 1,0 1,0 a 0.5,0.5 0 1,0 -1,0  M272.06 187 L272.06 187 284.06 187 M278.06 193 L278.06 193 278.06 181 M284.06 187 Q 361.04 187, 438.03 156.5 T 592 126 M 604 126 m -1, 0 a 1,1 0 1,0 2,0 a 1,1 0 1,0 -2,0 M 604 126 m -0.5, 0 a 0.5,0.5 0 1,0 1,0 a 0.5,0.5 0 1,0 -1,0  M604 126 L604 126 592 126 M 604 132 m -1, 0 a 1,1 0 1,0 2,0 a 1,1 0 1,0 -2,0 M 604 132 m -0.5, 0 a 0.5,0.5 0 1,0 1,0 a 0.5,0.5 0 1,0 -1,0  M604 132 L604 132 597 126 604 120 M 604 120 m -1, 0 a 1,1 0 1,0 2,0 a 1,1 0 1,0 -2,0 M 604 120 m -0.5, 0 a 0.5,0.5 0 1,0 1,0 a 0.5,0.5 0 1,0 -1,0 " id="h2543177687" class="r"></path><path d="M 610 330 m -1, 0 a 1,1 0 1,0 2,0 a 1,1 0 1,0 -2,0 M 610 330 m -0.5, 0 a 0.5,0.5 0 1,0 1,0 a 0.5,0.5 0 1,0 -1,0  M610 330 L610 330 598 330 M 610 336 m -1, 0 a 1,1 0 1,0 2,0 a 1,1 0 1,0 -2,0 M 610 336 m -0.5, 0 a 0.5,0.5 0 1,0 1,0 a 0.5,0.5 0 1,0 -1,0  M610 336 L610 336 603 330 610 324 M 610 324 m -1, 0 a 1,1 0 1,0 2,0 a 1,1 0 1,0 -2,0 M 610 324 m -0.5, 0 a 0.5,0.5 0 1,0 1,0 a 0.5,0.5 0 1,0 -1,0  M598 330 Q 519.52 330, 441.03 258.5 T 284.06 187 M 272.06 187 m -1, 0 a 1,1 0 1,0 2,0 a 1,1 0 1,0 -2,0 M 272.06 187 m -0.5, 0 a 0.5,0.5 0 1,0 1,0 a 0.5,0.5 0 1,0 -1,0  M272.06 187 L272.06 187 284.06 187 M278.06 193 L278.06 193 278.06 181" id="h2286254435" class="r"></path><path d="M 616 493 m -1, 0 a 1,1 0 1,0 2,0 a 1,1 0 1,0 -2,0 M 616 493 m -0.5, 0 a 0.5,0.5 0 1,0 1,0 a 0.5,0.5 0 1,0 -1,0  M616 493 L616 493 604 493 M 616 499 m -1, 0 a 1,1 0 1,0 2,0 a 1,1 0 1,0 -2,0 M 616 499 m -0.5, 0 a 0.5,0.5 0 1,0 1,0 a 0.5,0.5 0 1,0 -1,0  M616 499 L616 499 609 493 616 487 M 616 487 m -1, 0 a 1,1 0 1,0 2,0 a 1,1 0 1,0 -2,0 M 616 487 m -0.5, 0 a 0.5,0.5 0 1,0 1,0 a 0.5,0.5 0 1,0 -1,0  M604 493 Q 524.02 493, 444.03 340 T 284.06 187 M 272.06 187 m -1, 0 a 1,1 0 1,0 2,0 a 1,1 0 1,0 -2,0 M 272.06 187 m -0.5, 0 a 0.5,0.5 0 1,0 1,0 a 0.5,0.5 0 1,0 -1,0  M272.06 187 L272.06 187 284.06 187 M278.06 193 L278.06 193 278.06 181" id="h1139284389" class="r"></path><path d="M 616 518 m -1, 0 a 1,1 0 1,0 2,0 a 1,1 0 1,0 -2,0 M 616 518 m -0.5, 0 a 0.5,0.5 0 1,0 1,0 a 0.5,0.5 0 1,0 -1,0  M616 518 L616 518 604 518 M 616 524 m -1, 0 a 1,1 0 1,0 2,0 a 1,1 0 1,0 -2,0 M 616 524 m -0.5, 0 a 0.5,0.5 0 1,0 1,0 a 0.5,0.5 0 1,0 -1,0  M616 524 L616 524 609 518 616 512 M 616 512 m -1, 0 a 1,1 0 1,0 2,0 a 1,1 0 1,0 -2,0 M 616 512 m -0.5, 0 a 0.5,0.5 0 1,0 1,0 a 0.5,0.5 0 1,0 -1,0  M604 518 Q 523.18 518, 442.37 518.5 T 280.73 519 M 268.73 519 m -1, 0 a 1,1 0 1,0 2,0 a 1,1 0 1,0 -2,0 M 268.73 519 m -0.5, 0 a 0.5,0.5 0 1,0 1,0 a 0.5,0.5 0 1,0 -1,0  M268.73 519 L268.73 519 280.73 519 M274.73 525 L274.73 525 274.73 513" id="h1607168654" class="r"></path><path d="M 633 680 m -1, 0 a 1,1 0 1,0 2,0 a 1,1 0 1,0 -2,0 M 633 680 m -0.5, 0 a 0.5,0.5 0 1,0 1,0 a 0.5,0.5 0 1,0 -1,0  M633 680 L633 680 621 680 M 633 686 m -1, 0 a 1,1 0 1,0 2,0 a 1,1 0 1,0 -2,0 M 633 686 m -0.5, 0 a 0.5,0.5 0 1,0 1,0 a 0.5,0.5 0 1,0 -1,0  M633 686 L633 686 626 680 633 674 M 633 674 m -1, 0 a 1,1 0 1,0 2,0 a 1,1 0 1,0 -2,0 M 633 674 m -0.5, 0 a 0.5,0.5 0 1,0 1,0 a 0.5,0.5 0 1,0 -1,0  M621 680 Q 536.77 680, 452.53 446 T 284.06 212 M 272.06 212 m -1, 0 a 1,1 0 1,0 2,0 a 1,1 0 1,0 -2,0 M 272.06 212 m -0.5, 0 a 0.5,0.5 0 1,0 1,0 a 0.5,0.5 0 1,0 -1,0  M272.06 212 L272.06 212 284.06 212 M278.06 218 L278.06 218 278.06 206" id="h724011168" class="r"></path></g><g class="hrs"></g><g class="ts"><svg width="172.06" height="225" x="100" y="130" id="h1639608377" class="t"><rect height="40" width="172.06" class="th"></rect><text x="13" y="25" class="tht">employees</text><rect height="185" width="172.06" class="t-bg"></rect><text x="13" y="61" class="tf pk">emp_no<tspan x="159.06" class="ty">int</tspan></text><path d="M7,14A2,2 0 0,1 5,12A2,2 0 0,1 7,10A2,2 0 0,1 9,12A2,2 0 0,1 7,14M12.65,10C11.83,7.67 9.61,6 7, 6A6, 6 0 0, 0 1, 12A6, 6 0 0, 0 7, 18C9.61, 18 11.83, 16.33 12.65, 14H17V18H21V14H23V10H12.65Z" class="i pk" transform="translate(126.386171875, 48) scale(0.65)"></path><text x="13" y="86" class="tf fk">emp_title_id<tspan x="159.06" class="ty">varchar(40)</tspan></text><text x="13" y="111" class="tf">birth_date<tspan x="159.06" class="ty">date</tspan></text><text x="13" y="136" class="tf">first_name<tspan x="159.06" class="ty">varchar(40)</tspan></text><text x="13" y="161" class="tf">last_name<tspan x="159.06" class="ty">varchar(40)</tspan></text><text x="13" y="186" class="tf">sex<tspan x="159.06" class="ty">varchar(10)</tspan></text><text x="13" y="211" class="tf">hire_date<tspan x="159.06" class="ty">date</tspan></text></svg><svg width="170.73" height="100" x="98" y="462" id="h475896179" class="t"><rect height="40" width="170.73" class="th"></rect><text x="13" y="25" class="tht">departments</text><rect height="60" width="170.73" class="t-bg"></rect><text x="13" y="61" class="tf pk">dept_no<tspan x="157.73" class="ty">varchar(10)</tspan></text><path d="M7,14A2,2 0 0,1 5,12A2,2 0 0,1 7,10A2,2 0 0,1 9,12A2,2 0 0,1 7,14M12.65,10C11.83,7.67 9.61,6 7, 6A6, 6 0 0, 0 1, 12A6, 6 0 0, 0 7, 18C9.61, 18 11.83, 16.33 12.65, 14H17V18H21V14H23V10H12.65Z" class="i pk" transform="translate(76.37648437499999, 48) scale(0.65)"></path><text x="13" y="86" class="tf">dept_name<tspan x="157.73" class="ty">varchar(40)</tspan></text></svg><svg width="122.04" height="100" x="604" y="69" id="h2472833127" class="t"><rect height="40" width="122.04" class="th"></rect><text x="13" y="25" class="tht">salaries</text><rect height="60" width="122.04" class="t-bg"></rect><text x="13" y="61" class="tf pk">emp_no<tspan x="109.04" class="ty">int</tspan></text><path d="M7,14A2,2 0 0,1 5,12A2,2 0 0,1 7,10A2,2 0 0,1 9,12A2,2 0 0,1 7,14M12.65,10C11.83,7.67 9.61,6 7, 6A6, 6 0 0, 0 1, 12A6, 6 0 0, 0 7, 18C9.61, 18 11.83, 16.33 12.65, 14H17V18H21V14H23V10H12.65Z" class="i pk" transform="translate(76.366171875, 48) scale(0.65)"></path><text x="13" y="86" class="tf">salary<tspan x="109.04" class="ty">int</tspan></text></svg><svg width="150.73" height="100" x="610" y="248" id="h1676682957" class="t"><rect height="40" width="150.73" class="th"></rect><text x="13" y="25" class="tht">dept_manager</text><rect height="60" width="150.73" class="t-bg"></rect><text x="13" y="61" class="tf">dept_no<tspan x="137.73" class="ty">varchar(10)</tspan></text><text x="13" y="86" class="tf pk">emp_no<tspan x="137.73" class="ty">int</tspan></text><path d="M7,14A2,2 0 0,1 5,12A2,2 0 0,1 7,10A2,2 0 0,1 9,12A2,2 0 0,1 7,14M12.65,10C11.83,7.67 9.61,6 7, 6A6, 6 0 0, 0 1, 12A6, 6 0 0, 0 7, 18C9.61, 18 11.83, 16.33 12.65, 14H17V18H21V14H23V10H12.65Z" class="i pk" transform="translate(105.05617187499999, 73) scale(0.65)"></path></svg><svg width="150.73" height="100" x="616" y="436" id="h1090417462" class="t"><rect height="40" width="150.73" class="th"></rect><text x="13" y="25" class="tht">dept_emp</text><rect height="60" width="150.73" class="t-bg"></rect><text x="13" y="61" class="tf pk">emp_no<tspan x="137.73" class="ty">int</tspan></text><path d="M7,14A2,2 0 0,1 5,12A2,2 0 0,1 7,10A2,2 0 0,1 9,12A2,2 0 0,1 7,14M12.65,10C11.83,7.67 9.61,6 7, 6A6, 6 0 0, 0 1, 12A6, 6 0 0, 0 7, 18C9.61, 18 11.83, 16.33 12.65, 14H17V18H21V14H23V10H12.65Z" class="i pk" transform="translate(105.05617187499999, 48) scale(0.65)"></path><text x="13" y="86" class="tf fk">dept_no<tspan x="137.73" class="ty">varchar(10)</tspan></text></svg><svg width="162.04" height="100" x="633" y="623" id="h311790747" class="t"><rect height="40" width="162.04" class="th"></rect><text x="13" y="25" class="tht">titles</text><rect height="60" width="162.04" class="t-bg"></rect><text x="13" y="61" class="tf pk">title_id<tspan x="149.04" class="ty">varchar(40)</tspan></text><path d="M7,14A2,2 0 0,1 5,12A2,2 0 0,1 7,10A2,2 0 0,1 9,12A2,2 0 0,1 7,14M12.65,10C11.83,7.67 9.61,6 7, 6A6, 6 0 0, 0 1, 12A6, 6 0 0, 0 7, 18C9.61, 18 11.83, 16.33 12.65, 14H17V18H21V14H23V10H12.65Z" class="i pk" transform="translate(67.68648437499999, 48) scale(0.65)"></path><text x="13" y="86" class="tf">title<tspan x="149.04" class="ty">varchar(40)</tspan></text></svg></g></g><text class="qdbd-link" x="10" y="20">www.quickdatabasediagrams.com</text></svg>